<svg id="Layer_1"
     data-name="Layer 1"
     xmlns="http://www.w3.org/2000/svg"
     viewBox="10 10 104.98 112.88">
    <defs><style>.cls-1{fill:var(--blue-accent);}.cls-2{fill:var(--blue-accent);}</style></defs>
    <path class="cls-1" d="M68.5,116.34a13.28,13.28,0,0,1-4.82,4.83,12.55,12.55,0,0,1-5.53,1.69,11.49,11.49,0,0,1-5.69-1.11,11.62,11.62,0,0,1-3.37-2.51l19.41-2.9Zm2.69-20.51-.63,3-.16,2.1-25.32,3.77a30.48,30.48,0,0,0-.71-4.83l26.82-4Zm-.84,9.65,0,1.27,0,.44a17.39,17.39,0,0,1,0,2.5l-.38,1.83L46.53,115l-.41-.94-.92-3.76,0-1.09,25.17-3.75Z"/>
    <path class="cls-2" d="M30.62,75.16a36.3,36.3,0,0,1-2.47-4.44,35.56,35.56,0,0,1-3.55-15.4c.12-12.94,7.45-24.93,19.63-29.88a33.76,33.76,0,0,1,15.86-2.27A36.61,36.61,0,0,1,75.23,28,31.27,31.27,0,0,1,88.45,43,33.22,33.22,0,0,1,91,54.65a33.6,33.6,0,0,1-2.57,13.67c-3,7.43-10,15.38-14.6,22.69-1-.19-5.66.71-7,.9l9.43-32.79a1.76,1.76,0,1,0-3.38-1L63,92.49l-9.36,1.39L43.75,62.45a1.75,1.75,0,0,0,1.85-.83l7-11.93,3.57,8.19a1.75,1.75,0,0,0,2.3.91,1.78,1.78,0,0,0,.93-1h0l3.16-8,3.7,9.76a1.75,1.75,0,0,0,3.28-1.24l-5.27-13.9A1.76,1.76,0,0,0,61,44.35L57.7,52.62l-3.26-7.48a1.71,1.71,0,0,0-.72-.81,1.74,1.74,0,0,0-2.39.62l-8.52,14.5-.61-1.93a1.74,1.74,0,1,0-3.33,1L50.13,94.4l-6.78,1A47.39,47.39,0,0,0,40,87.74c-2.71-4.89-6.36-7.94-9.37-12.58Z"/>
</svg>
