<svg version="1.1"
     style="height: 100%; width: 100%"
     transform="scale(1.5)"
     class="p-4"
     xml:space="preserve"
     xmlns="http://www.w3.org/2000/svg"
     viewBox="0 0 280 267.6">
    <g xmlns="http://www.w3.org/2000/svg" id="g890">
        <circle fill="#FF4500" class="st0" cx="139.8" cy="139.8" r="83.800003" id="circle886"/>
        <path fill="#FFFFFF" class="st2" d="m 195.7,139.8 c 0,-6.8 -5.5,-12.2 -12.2,-12.2 -3.3,0 -6.3,1.3 -8.5,3.4 -8.4,-6 -19.9,-9.9 -32.7,-10.4 l 5.6,-26.2 18.2,3.9 c 0.2,4.6 4,8.3 8.7,8.3 4.8,0 8.7,-3.9 8.7,-8.7 0,-4.8 -3.9,-8.7 -8.7,-8.7 -3.4,0 -6.4,2 -7.8,4.9 l -20.3,-4.3 c -0.6,-0.1 -1.2,0 -1.6,0.3 -0.5,0.3 -0.8,0.8 -0.9,1.4 l -6.2,29.2 c -13,0.4 -24.7,4.3 -33.2,10.4 -2.2,-2.1 -5.2,-3.4 -8.5,-3.4 -6.8,0 -12.2,5.5 -12.2,12.2 0,5 3,9.2 7.2,11.1 -0.2,1.2 -0.3,2.4 -0.3,3.7 0,18.8 21.9,34.1 48.9,34.1 27,0 48.9,-15.2 48.9,-34.1 0,-1.2 -0.1,-2.5 -0.3,-3.7 4.2,-1.9 7.2,-6.2 7.2,-11.2 z m -83.8,8.7 c 0,-4.8 3.9,-8.7 8.7,-8.7 4.8,0 8.7,3.9 8.7,8.7 0,4.8 -3.9,8.7 -8.7,8.7 -4.8,0.1 -8.7,-3.9 -8.7,-8.7 z m 48.7,23.1 c -6,6 -17.4,6.4 -20.7,6.4 -3.4,0 -14.8,-0.5 -20.7,-6.4 -0.9,-0.9 -0.9,-2.3 0,-3.2 0.9,-0.9 2.3,-0.9 3.2,0 3.8,3.8 11.8,5.1 17.5,5.1 5.7,0 13.8,-1.3 17.5,-5.1 0.9,-0.9 2.3,-0.9 3.2,0 0.8,0.9 0.8,2.3 0,3.2 z M 159,157.3 c -4.8,0 -8.7,-3.9 -8.7,-8.7 0,-4.8 3.9,-8.7 8.7,-8.7 4.8,0 8.7,3.9 8.7,8.7 0,4.7 -3.9,8.7 -8.7,8.7 z" id="path888"/>
    </g>
</svg>
